<svg xmlns="http://www.w3.org/2000/svg" width="321" height="317" viewBox="0 0 321 317">
  <g fill="none" fill-rule="evenodd">
    <g transform="translate(2 221)">
      <g fill="#FFF" fill-rule="nonzero" transform="translate(.5)">
        <path d="M47.9367887,78.4583662 C31.0786479,78.4583662 17.4135211,64.7972958 17.4135211,47.9350986 C17.4135211,31.0766197 31.0786479,17.4131831 47.9367887,17.4131831 C64.7952676,17.4131831 78.4597183,31.0766197 78.4597183,47.9350986 C78.4597183,64.7972958 64.7956056,78.4583662 47.9367887,78.4583662 Z"/>
        <path d="M95.8712113,47.9364507 C95.8712113,74.4094648 74.4098028,95.8708732 47.9354366,95.8708732 C21.4603944,95.8708732 0,74.4091268 0,47.9364507 C0,21.4607324 21.4603944,0 47.9357746,0 C74.4098028,0 95.8712113,21.4607324 95.8712113,47.9364507 Z M47.9357746,11.6602817 C27.900169,11.6602817 11.6612958,27.9018592 11.6612958,47.9361127 C11.6612958,67.9734085 27.900169,84.2099155 47.9357746,84.2099155 C67.9720563,84.2099155 84.2109296,67.9734085 84.2109296,47.9361127 C84.2109296,27.9018592 67.9720563,11.6602817 47.9357746,11.6602817 Z"/>
      </g>
      <g fill-rule="nonzero" transform="translate(223)">
        <path fill="#FFF" d="M95.7746526,48.032 C95.7746526,74.3996632 74.4020211,95.7743158 48.0343579,95.7743158 C21.6666947,95.7743158 0.292042105,74.3996632 0.292042105,48.032 C0.292042105,21.6660211 21.6670316,0.292042105 48.0343579,0.292042105 C74.4020211,0.292042105 95.7746526,21.6656842 95.7746526,48.032 Z"/>
        <path fill="#E95420" d="M23.2565895,48.032 C23.2565895,51.4219789 20.5082947,54.1709474 17.1159579,54.1709474 C13.7276632,54.1709474 10.9793684,51.4223158 10.9793684,48.032 C10.9793684,44.6433684 13.7276632,41.8950737 17.1159579,41.8950737 C20.5082947,41.8950737 23.2565895,44.6433684 23.2565895,48.032 Z M58.1783579,77.8782316 C59.8736842,80.8117895 63.6261053,81.8179368 66.5620211,80.1249684 C69.4976,78.4296421 70.5034105,74.6752 68.8084211,71.7392842 C67.1134316,68.8037053 63.3606737,67.7999158 60.4250947,69.4949053 C57.4891789,71.1902316 56.4833684,74.9426526 58.1783579,77.8782316 Z M68.8080842,24.3264 C70.5030737,21.3901474 69.4992842,17.6367158 66.5616842,15.9434105 C63.6277895,14.2484211 59.8736842,15.2542316 58.1780211,18.1891368 C56.4830316,21.1247158 57.4888421,24.8778105 60.4247579,26.5728 C63.3606737,28.2677895 67.1151158,27.2619789 68.8080842,24.3264 Z M48.0343579,30.5286737 C57.1806316,30.5286737 64.6858105,37.5397053 65.4696421,46.4828632 L74.3528421,46.3427368 C73.9311158,39.6978526 71.0487579,33.7216 66.6071579,29.3150316 C64.256,30.2221474 61.5279158,30.0988632 59.1744,28.7390316 C56.8192,27.3792 55.3482105,25.0772211 54.9591579,22.5832421 C52.7514947,21.9836632 50.4293053,21.6626526 48.0343579,21.6626526 C43.8336,21.6626526 39.8629053,22.6448842 36.3368421,24.3920842 L40.6592,32.1539368 C42.8992,31.1130947 45.4009263,30.5286737 48.0343579,30.5286737 Z M30.5290105,48.032 C30.5290105,42.1113263 33.4709895,36.8754526 37.9722105,33.7094737 L33.4113684,26.0853895 C28.1283368,29.6134737 24.1930105,34.9952 22.5327158,41.3049263 C24.4975158,42.8870737 25.7562947,45.3123368 25.7562947,48.0323368 C25.7562947,50.7540211 24.4971789,53.1792842 22.5327158,54.7617684 C24.1930105,61.0711579 28.1283368,66.4528842 33.4113684,69.9829895 L37.9722105,62.3589053 C33.4709895,59.1905684 30.5290105,53.9567158 30.5290105,48.032 Z M48.0343579,65.5386947 C45.4012632,65.5386947 42.8995368,64.9546105 40.6592,63.9117474 L36.3368421,71.6736 C39.8629053,73.4221474 43.8332632,74.4033684 48.0343579,74.4033684 C50.4289684,74.4033684 52.7514947,74.0847158 54.9591579,73.4841263 C55.3478737,70.9884632 56.8188632,68.6864842 59.1744,67.3290105 C61.5279158,65.9691789 64.256,65.8455579 66.6071579,66.7526737 C71.0490947,62.3440842 73.9311158,56.3678316 74.3528421,49.7229474 L65.4696421,49.5851789 C64.6854737,58.5259789 57.1806316,65.5386947 48.0343579,65.5386947 Z"/>
      </g>
      <path fill="#FFF" d="M12.6612903 14.2941176C13.3031754 14.2941176 13.8225806 13.7814115 13.8225806 13.1485514 13.8225806 12.5127062 13.3031754 12 12.6612903 12 12.0194052 12 11.5 12.5127062 11.5 13.1485514 11.5 13.7814115 12.0194052 14.2941176 12.6612903 14.2941176M12.7741935 8.29411765C13.4160786 8.29411765 13.9354839 7.78074344 13.9354839 7.14705882 13.9354839 6.51337421 13.4160786 6 12.7741935 6 12.1323085 6 11.6129032 6.51337421 11.6129032 7.14705882 11.6129032 7.78074344 12.1323085 8.29411765 12.7741935 8.29411765M12.7741935 2.29411765C13.4160786 2.29411765 13.9354839 1.77842627 13.9354839 1.14556623 13.9354839.512706189 13.4160786 0 12.7741935 0 12.1323085 0 11.6129032.512706189 11.6129032 1.14556623 11.6129032 1.77842627 12.1323085 2.29411765 12.7741935 2.29411765M12.7741935 20.2941176C13.4160786 20.2941176 13.9354839 19.7784263 13.9354839 19.1455662 13.9354839 18.5127062 13.4160786 18 12.7741935 18 12.1323085 18 11.6129032 18.5127062 11.6129032 19.1455662 11.6129032 19.7784263 12.1323085 20.2941176 12.7741935 20.2941176M12.7741935 26.2941176C13.4160786 26.2941176 13.9354839 25.7807434 13.9354839 25.1470588 13.9354839 24.5133742 13.4160786 24 12.7741935 24 12.1323085 24 11.6129032 24.5133742 11.6129032 25.1470588 11.6129032 25.7807434 12.1323085 26.2941176 12.7741935 26.2941176M6.66091242 14.2941176C7.30258862 14.2941176 7.82258065 13.7814115 7.82258065 13.1485514 7.82258065 12.5127062 7.30258862 12 6.66091242 12 6.01923622 12 5.5 12.5127062 5.5 13.1485514 5.5 13.7814115 6.01923622 14.2941176 6.66091242 14.2941176M1.66129032 14.2941176C2.3031754 14.2941176 2.82258065 13.7814115 2.82258065 13.1485514 2.82258065 12.5127062 2.3031754 12 1.66129032 12 1.01940524 12 .5 12.5127062.5 13.1485514.5 13.7814115 1.01940524 14.2941176 1.66129032 14.2941176M17.6612903 14.2941176C18.3031754 14.2941176 18.8225806 13.7814115 18.8225806 13.1485514 18.8225806 12.5127062 18.3031754 12 17.6612903 12 17.0194052 12 16.5 12.5127062 16.5 13.1485514 16.5 13.7814115 17.0194052 14.2941176 17.6612903 14.2941176M23.6612903 14.2941176C24.3031754 14.2941176 24.8225806 13.7814115 24.8225806 13.1485514 24.8225806 12.5127062 24.3031754 12 23.6612903 12 23.0194052 12 22.5 12.5127062 22.5 13.1485514 22.5 13.7814115 23.0194052 14.2941176 23.6612903 14.2941176" opacity=".5" transform="translate(147 35)"/>
    </g>
    <g fill-rule="nonzero" transform="translate(111 101)">
      <path fill="#326DE6" stroke="#FFF" stroke-linejoin="round" stroke-width=".745" d="M1.05341735,63.2142135 C1.16903543,63.39157 1.29327726,63.5632098 1.42570005,63.7285211 L25.0754995,93.2323392 C26.3153979,94.7790492 28.1955696,95.6796537 30.1838565,95.6796537 L68.109877,95.6757611 C70.0980036,95.6754739 71.977842,94.7744522 73.2174063,93.2276811 L96.8609854,63.7184524 C98.1002897,62.1713832 98.5642992,60.1469775 98.1216926,58.218171 L89.6787368,21.4251532 C89.2359555,19.4963452 87.9347105,17.873099 86.1432862,17.0148334 L51.971182,0.643454745 C50.1797573,-0.214680535 48.0931527,-0.214475186 46.3018986,0.644012675 L12.1332344,17.0225666 C10.3419939,17.8813009 9.04114868,19.5049208 8.59888301,21.4338855 L0.163621988,58.2286938 C-0.229083252,59.9420326 0.0918904396,61.7405919 1.05341735,63.2146157 L1.05341735,63.2142135 Z"/>
      <path fill="#FFF" d="M47.0918453,14.527968 C47.0892527,14.7512368 47.0827711,14.9789525 47.0892527,15.1388125 C47.1162159,15.8623449 47.2752213,16.4172009 47.3704093,17.0838011 C47.5428704,18.5105571 47.6879145,19.6932441 47.5987414,20.7924978 C47.517722,21.3426483 47.1981297,21.5589492 46.9312843,21.8135926 L46.8800801,22.7164795 C45.6409244,22.8183472 44.4038169,23.0056779 43.1778318,23.2832804 C38.0114663,24.4530659 33.356832,27.1256333 29.7716665,30.9059864 L29.0691572,30.4096268 C28.6755197,30.4394891 28.3064214,30.5535085 27.8246089,30.2736308 C26.9071974,29.6577834 26.070546,28.8074334 25.059502,27.783417 C24.5962268,27.2935858 24.2604695,26.8235851 23.7100563,26.3514255 C23.5783512,26.2384402 23.3704361,26.0843847 23.229592,25.9722009 C22.2463124,25.209831 20.8942096,25.2991104 20.1948008,26.173157 C19.4964673,27.0477002 19.7102667,28.3816769 20.6747336,29.1676419 C20.8525225,29.3104894 21.0251002,29.4563361 21.1531886,29.5506543 C21.73728,29.9807093 22.2713726,30.2025044 22.853338,30.5439035 C24.0794269,31.2989916 25.0969654,31.9231901 25.9031794,32.6780973 C26.2840094,33.0842496 26.2545572,33.468322 26.2878335,33.8351493 L26.9582591,34.4330276 C26.8284336,34.6277398 26.7007212,34.8241454 26.5758087,35.0227487 C23.2206863,40.3563264 21.895702,46.6919568 22.7895077,52.888062 L21.9309487,53.135143 C21.7089686,53.4605509 21.5685652,53.819402 21.0487449,54.0205649 C19.9939375,54.3518936 18.8054287,54.4741091 17.3722414,54.6239374 C16.6993528,54.6797837 16.1218078,54.6483701 15.4084485,54.7831122 C15.2464097,54.8137501 15.0154203,54.8739917 14.8417536,54.91417 C13.6007035,55.2133202 12.8277698,56.3231224 13.0769054,57.4133295 C13.3271215,58.5030687 14.5062282,59.1681054 15.7237499,58.906196 C15.9440837,58.8592955 16.1679046,58.8150838 16.3225544,58.7737162 C17.023884,58.5864632 17.5307153,58.3083048 18.1612275,58.067416 C19.5176603,57.5822515 20.6413925,57.1780382 21.7358929,57.0201174 C22.2917506,56.9764229 22.5746832,57.2388874 22.8830106,57.4416533 L23.8121018,57.2843013 C25.732248,63.2072252 29.6849045,68.3049557 35.0119347,71.6465019 C35.2146127,71.7735781 35.4191575,71.8972802 35.6246356,72.0186294 L35.2613447,72.8950281 C35.3780256,73.270297 35.5716165,73.6036165 35.4052481,74.1343371 C35.0073587,75.1633305 34.3621204,76.1661331 33.5860196,77.3769889 C33.2102323,77.9364082 32.8256431,78.3672648 32.4865414,79.0074673 C32.4053924,79.1606568 32.3009616,79.3973441 32.2226256,79.5592337 C31.6955456,80.6853524 32.0838045,81.9801255 33.0940441,82.465541 C34.1043768,82.9496919 35.360747,82.4449768 35.9144645,81.332508 C36.0140211,81.1297679 36.1184778,80.9288894 36.182347,80.7829652 C36.4727982,80.1194028 36.5708252,79.5507533 36.7750718,78.9089607 C37.2404211,77.5488842 37.6242196,76.4207507 38.1828255,75.4689208 C38.4951454,75.0082925 38.877168,74.9513861 39.2283643,74.8374184 L39.7025933,73.9824921 C44.5850152,75.8420178 49.9447383,76.2447315 55.1078501,75.07567 C56.3118758,74.8030445 57.4874733,74.4471925 58.6288613,74.0163489 L59.0499287,74.7750696 C59.4172122,74.918305 59.7994681,74.974901 60.1118269,75.4355035 C60.6704587,76.3873076 61.0541405,77.5154928 61.5195677,78.8755564 C61.7238531,79.5173231 61.8220746,80.0860114 62.1125646,80.7495608 C62.1785468,80.9002553 62.2886554,81.1111396 62.3666284,81.2710254 C62.9346,82.4115825 64.1915135,82.9162487 65.2019435,82.4315678 C66.2117742,81.9458636 66.5996269,80.6513525 66.0725453,79.5258164 C65.9763591,79.3203099 65.8839581,79.1140406 65.809511,78.97352 C65.4703704,78.3333304 65.085846,77.9024351 64.7100328,77.3430416 C63.9338672,76.1322246 63.2884863,75.1296288 62.8905321,74.1006612 C62.7241248,73.5699536 62.9177546,73.2366212 63.0473986,72.8917316 L62.7052116,72.0658532 C66.3320276,69.9349947 69.4333844,66.9561002 71.7112862,63.3349606 C72.9175803,61.4173392 73.8603477,59.3697071 74.53334,57.246075 L75.3697191,57.3872291 C75.7110894,57.1901253 75.994035,56.927441 76.5498927,56.9710968 C77.6444061,57.1289659 78.7680994,57.533037 80.1245581,58.0181239 C80.7550833,58.2589868 81.2621609,58.5372098 81.9635034,58.7244241 C82.1229496,58.7669552 82.3572965,58.8127181 82.5313131,58.8516295 C83.779813,59.1190318 84.9592597,58.4533853 85.208971,57.3631195 C85.4574361,56.2731422 84.684505,55.1640099 83.4737823,54.8731772 C83.2534744,54.821067 83.0331925,54.7641865 82.8761056,54.7345828 C82.1627592,54.5998666 81.5852013,54.6309052 80.9123257,54.5751495 C79.4791254,54.4253858 78.2906425,54.3033126 77.2358092,53.9720485 C76.7159889,53.7708985 76.5753263,53.4120216 76.385741,53.0959213 L75.5235522,52.848 C75.955729,49.6972102 75.8224813,46.4634783 75.0942662,43.3018682 C74.3593492,40.1111457 73.0471465,37.1149156 71.2532221,34.4440159 L71.9560035,33.8168958 C72.0143375,33.4279627 71.9850409,33.0439033 72.3655338,32.6377251 C73.171709,31.882792 74.1893252,31.2584255 75.4153752,30.5032598 C75.9973146,30.1618348 76.5314462,29.939833 77.1155116,29.5097391 C77.2552668,29.4068372 77.4522281,29.2389493 77.5932407,29.1269724 C78.5572591,28.3402058 78.7708309,27.0058581 78.0720587,26.1313886 C77.3724359,25.2579032 76.0207674,25.168999 75.0378249,25.9318158 C74.8619675,26.0703714 74.6793174,26.2069879 74.5577624,26.3112731 C74.0073752,26.7834585 73.6715661,27.2536789 73.2083297,27.7435361 C72.1973376,28.7676042 71.3608676,29.6178508 70.4434821,30.2337498 C69.9616825,30.5136276 69.5925712,30.3995952 69.2265581,30.3503548 L68.4232348,30.9182286 C66.9020281,29.3211804 65.1770414,27.9046758 63.276288,26.7123708 C59.6569777,24.4420518 55.5814181,23.0951741 51.4032426,22.7284632 L51.353205,21.8463377 C51.0844151,21.558083 50.7647969,21.3417821 50.6837905,20.7916317 C50.5946044,19.692378 50.7396615,18.5096909 50.9121226,17.082935 C51.0072717,16.4163348 51.1662901,15.8614788 51.1932922,15.1379463 C51.1997737,14.96481 51.1906996,14.706689 51.1906996,14.5269338 C51.1752181,13.2846311 50.262235,12.2857143 49.1409354,12.2857143 C48.0192026,12.2875698 47.1067037,13.285975 47.0918453,14.527968 Z M45.964989,38.8654894 L45.9194885,38.8873367 C45.8786547,39.8468584 45.0881519,40.6122109 44.1172417,40.6122109 C43.7195338,40.6122109 43.3521985,40.4846177 43.0538916,40.267386 L34.2285746,34.0561299 C37.0091983,31.3292417 40.5154704,29.3975165 44.3845019,28.5214798 C45.1099948,28.3572116 45.8403747,28.2330959 46.5725046,28.1460688 L45.964989,38.8654894 Z M60.4164338,31.2575852 C61.710566,32.0693729 62.9020563,33.0114556 63.9779547,34.0614948 L55.2336051,40.2445692 L55.1987344,40.229832 C54.4220892,40.7955211 53.3291962,40.6561252 52.7238194,39.8992143 C52.4758224,39.5891253 52.3468784,39.2235261 52.331232,38.8554578 L51.7115051,28.1605474 C54.7747114,28.5400306 57.7498076,29.5848601 60.4164338,31.2575852 Z M39.066157,45.2323653 L39.0557865,45.2777404 C39.7828997,45.9081052 39.8896638,47.0016968 39.284313,47.7586982 C39.0363289,48.0688001 38.7076495,48.2756123 38.3512939,48.3727098 L28.0226462,51.3810788 C27.5241113,46.7503368 28.5684445,42.0660626 31.0297742,38.065595 L39.066157,45.2323653 Z M69.8446517,44.4918592 C70.3668572,46.759024 70.505679,49.0718224 70.2785914,51.3410944 L59.9222675,48.362174 L59.9131933,48.3228748 C58.9841798,48.0674427 58.412196,47.1283851 58.6281742,46.1844538 C58.7167122,45.79777 58.9229162,45.4692078 59.2017266,45.2275305 L67.1945923,38.0676116 C68.4135903,40.0316165 69.3163276,42.1980511 69.8446517,44.4918592 Z M52.3270578,38.8565049 C52.3430025,39.2249222 52.4722575,39.5909739 52.7204749,39.9013473 C53.3269795,40.6596673 54.4215706,40.7995415 55.2000437,40.2336068 L55.2293403,40.2478269 L53.894141,41.1919262 L53.3433,40.5058315 L52.4135736,40.5058315 L52.3193318,38.8526913 L52.3270578,38.8565049 Z M45.8719009,40.5046292 L44.9281873,40.5043448 L44.3579276,41.2144716 L43.0353155,40.2796541 L43.0525564,40.2718977 C43.3513947,40.4892198 43.7188208,40.616994 44.1169824,40.616994 C45.0897853,40.616994 45.8820122,39.8505944 45.9236237,38.8906849 L45.9647167,38.8710353 L45.8719009,40.5046292 Z M59.1968136,45.2242469 C58.9178995,45.4664413 58.7115659,45.795469 58.622989,46.1825534 C58.4066219,47.1281524 58.9794483,48.0685416 59.9083581,48.3227455 L59.9174323,48.3603642 L58.3864772,47.9199801 L58.5890775,47.0392249 L57.9834934,46.2851451 L59.1930154,45.20589 L59.1968136,45.2242469 Z M40.2685752,46.3046396 L39.6805042,47.0366007 L39.8932287,47.9632351 L38.3458494,48.4088031 L38.3536273,48.3760968 C38.710307,48.2786244 39.0394919,48.0716829 39.2877353,47.7612448 C39.894162,47.0028731 39.7871387,45.9074718 39.0607773,45.2764994 L39.0698515,45.2354937 L40.2685752,46.3046396 Z M50.7817656,45.7851012 L52.8353539,48.3427442 L52.1019147,51.5316181 L49.1339223,52.9502298 L46.1662151,51.5305192 L45.4338778,48.3413739 L47.4879846,45.7848168 L50.7817656,45.7851012 Z M58.493708,54.5391855 L58.4767263,54.5602571 C58.112904,54.4938104 57.7261499,54.5378928 57.3673961,54.7101501 C56.4910128,55.1310914 56.1105977,56.1643638 56.4907665,57.0472003 L56.4778034,57.0629717 L55.8670211,55.591125 L56.7148985,55.1859681 L56.9246026,54.2743552 L58.493708,54.5391855 Z M41.5517406,55.1835507 L42.4291998,55.6034577 L41.7987006,57.1241699 L41.7701818,57.0881025 C41.9160685,56.7492371 41.9589764,56.3636651 41.8703866,55.9766324 C41.6539158,55.03093 40.7285319,54.4311643 39.7809423,54.6041585 L39.7661644,54.5859309 L41.3526792,54.3175327 L41.5517406,55.1835507 Z M58.4772838,54.5646266 L69.1536537,56.3387412 C68.640639,57.7743782 67.9702653,59.1611627 67.145514,60.4722574 C65.4665074,63.1413731 63.2289597,65.3733366 60.6173748,67.03784 L56.4800979,57.0677031 C56.1149533,56.1656694 56.4943055,55.134362 57.3690295,54.7142222 C57.6377805,54.585207 57.9223075,54.5280421 58.2010271,54.5356693 C58.2942707,54.5382547 58.3864513,54.5485966 58.4772838,54.5646266 Z M41.8657717,55.9775244 C41.9543097,56.3642081 41.911715,56.7495086 41.7655669,57.0878956 L41.796808,57.1284876 L37.7052519,66.9959553 C33.7563418,64.4684719 30.7724696,60.7284651 29.1840362,56.3749507 L39.7607458,54.5866678 C39.898025,54.5867712 40.0159503,54.5770756 40.1321645,54.5787562 C40.9456768,54.5904813 41.6767049,55.1515554 41.8657717,55.9775244 Z M50.7680766,59.8535918 L50.730354,59.8533074 C50.5556503,59.5281709 50.2798344,59.2543174 49.9210806,59.0820342 C49.0447233,58.6611834 47.9977326,59.0088652 47.5425204,59.8554921 L48.3301972,58.4262412 L49.1331705,58.8103783 L49.9679163,58.4114911 L50.7680766,59.8535918 Z M49.9185658,59.0861322 C50.2769048,59.2582214 50.552241,59.5317389 50.726465,59.856591 L50.7706044,59.8579871 L55.984363,69.2520542 C55.3033077,69.4811661 54.6084078,69.6772098 53.9009337,69.8374059 C50.035817,70.7125635 46.0354953,70.4828052 42.3397415,69.2263804 L47.5348722,59.8601719 C47.8571089,59.2774703 48.4485892,58.931831 49.0720754,58.9090529 C49.3551765,58.8985947 49.6452,58.9548288 49.9185658,59.0861322 Z"/>
    </g>
    <g fill-rule="nonzero">
      <g fill="#FFF" transform="translate(0 29.83)">
        <path d="M20.8803647,24.9285987 L18.6431828,19.4421763 L8.25626666,19.4421763 L6.01908472,24.9285987 L0.479396128,24.9285987 L10.9728447,0.213064946 L15.9798709,0.213064946 L26.4733195,24.9285987 L20.8803647,24.9285987 Z M13.4230916,6.7115458 L10.1738512,14.648215 L16.672332,14.648215 L13.4230916,6.7115458 Z"/>
        <polygon points="38.245 5.38 38.245 24.929 32.865 24.929 32.865 5.38 25.408 5.38 25.408 .426 45.756 .426 45.756 5.38"/>
        <path d="M64.7717436,24.9285987 L59.4983862,17.0984619 L55.2370872,17.0984619 L55.2370872,24.9285987 L49.8571974,24.9285987 L49.8571974,0.372863655 L61.0963733,0.372863655 C66.902393,0.372863655 70.3646984,3.40903914 70.3646984,8.4693316 L70.3646984,8.52259784 C70.3646984,12.4642993 68.2340489,14.9678125 65.091341,16.1396697 L71.1104257,24.9285987 L64.7717436,24.9285987 L64.7717436,24.9285987 Z M64.878276,8.78892902 C64.878276,6.49848085 63.2802889,5.27335741 60.6169771,5.27335741 L55.2370872,5.27335741 L55.2370872,12.3045006 L60.7235096,12.3045006 C63.3335552,12.3045006 64.878276,10.9195785 64.878276,8.84219526 L64.878276,8.78892902 L64.878276,8.78892902 Z"/>
        <polygon points="75.212 24.929 75.212 .373 93.749 .373 93.749 5.167 80.592 5.167 80.592 10.121 92.151 10.121 92.151 14.915 80.592 14.915 80.592 20.081 93.908 20.081 93.908 24.875"/>
        <path d="M107.437999,25.3014623 C103.709362,25.3014623 99.9807259,24.0230727 96.9978166,21.3597608 L100.193791,17.5245918 C102.377707,19.3356438 104.721421,20.507501 107.544531,20.507501 C109.728447,20.507501 111.113369,19.6552413 111.113369,18.2170529 L111.113369,18.1637866 C111.113369,16.7788645 110.26111,16.0864034 106.159609,15.0210787 C101.205849,13.742689 98.0098751,12.4110331 98.0098751,7.51053934 L98.0098751,7.45727311 C98.0098751,2.98290924 101.578713,0.0532662365 106.585739,0.0532662365 C110.154577,0.0532662365 113.190753,1.1718572 115.694266,3.19597419 L112.871155,7.24420816 C110.687239,5.75275354 108.55659,4.84722752 106.479207,4.84722752 C104.401824,4.84722752 103.336499,5.80601978 103.336499,6.97787698 L103.336499,7.03114322 C103.336499,8.62913031 104.401824,9.16179268 108.609856,10.2803836 C113.563616,11.5587733 116.386727,13.3698254 116.386727,17.6311243 L116.386727,17.6843905 C116.439993,22.5848843 112.711356,25.3014623 107.437999,25.3014623 Z"/>
        <polygon points="140.303 24.929 140.303 8.895 133.379 19.389 133.219 19.389 126.454 9.055 126.454 24.982 121.181 24.982 121.181 .426 126.987 .426 133.432 10.813 139.877 .426 145.683 .426 145.683 24.982"/>
        <polygon points="151.596 24.929 151.596 .373 170.132 .373 170.132 5.167 156.976 5.167 156.976 10.121 168.534 10.121 168.534 14.915 156.976 14.915 156.976 20.081 170.292 20.081 170.292 24.875"/>
        <path d="M184.620776,24.9285987 L175.032853,24.9285987 L175.032853,0.372863655 L184.620776,0.372863655 C192.34438,0.372863655 197.671004,5.64622107 197.671004,12.5708318 L197.671004,12.624098 C197.671004,19.601975 192.34438,24.9285987 184.620776,24.9285987 Z M192.024783,12.6773643 C192.024783,8.30953289 189.041873,5.27335741 184.620776,5.27335741 L180.466009,5.27335741 L180.466009,20.0813712 L184.620776,20.0813712 C189.041873,20.0813712 192.024783,17.0984619 192.024783,12.7306305 L192.024783,12.6773643 Z"/>
        <polygon points="202.731 24.929 202.731 .373 208.111 .373 208.111 24.929"/>
        <path d="M232.507122,24.9285987 L230.26994,19.4421763 L219.883024,19.4421763 L217.645842,24.9285987 L212.15942,24.9285987 L222.706135,0.213064946 L227.659895,0.213064946 L238.153343,24.9285987 L232.507122,24.9285987 Z M225.103115,6.7115458 L221.853875,14.648215 L228.352356,14.648215 L225.103115,6.7115458 Z"/>
      </g>
      <g transform="translate(261.537)">
        <polygon fill="#B80000" points="25.887 51.029 43.146 62.321 25.887 76.544"/>
        <polygon fill="#DB5B15" points="25.887 .107 43.146 14.275 25.887 25.568"/>
        <polygon fill="#DB5B15" points="25.887 25.568 43.146 38.298 25.887 51.029"/>
        <polygon fill="#DB5B15" points="43.146 38.298 58.54 49.644 43.146 62.321"/>
        <polygon fill="#C82C07" points="43.146 14.275 58.54 26.953 43.146 38.298"/>
        <polygon fill="#B02304" points="6.339 11.186 .107 14.701 17.098 27.219 25.887 25.568"/>
        <polygon fill="#EAB85A" points="17.098 27.219 .107 38.298 6.339 38.298 25.887 25.568"/>
        <polygon fill="#B02304" points="17.152 49.431 .107 38.298 6.339 38.298 25.887 51.029"/>
        <polygon fill="#E7A93E" points="17.152 49.431 .107 62.002 6.339 65.464 25.887 51.029"/>
        <polygon fill="#E28D21" points="25.887 .107 6.339 11.186 25.887 25.568"/>
        <polygon fill="#DF761C" points="43.146 14.275 25.887 25.568 43.146 38.298"/>
        <polygon fill="#C82C07" points="43.146 38.298 25.887 51.029 43.146 62.321"/>
        <polygon fill="#DF761C" points="25.887 25.568 6.339 38.298 25.887 51.029"/>
        <polygon fill="#DB5B15" points="25.887 51.029 6.339 65.464 25.887 76.544"/>
      </g>
    </g>
  </g>
</svg>
